<svg width="25" height="25" viewBox="0 0 25 25" fill="none" xmlns="http://www.w3.org/2000/svg">
    <circle cx="12.5" cy="12.9482" r="12" fill="#DEE6F2"/>
    <circle cx="12.5" cy="12.9482" r="9.5" fill="#005883" stroke="#DEE6F2"/>
    <path d="M12.666 19.1142H16.1588C16.5336 19.1142 16.8367 18.8352 16.8367 18.5004V15.2959H12.666V19.1142ZM13.5671 16.5155H15.9515V16.946H13.5671V16.5155ZM13.5671 17.4641H15.9515V17.8946H13.5671V17.4641Z" fill="#DEE6F2"/>
    <path d="M16.1686 11.1348H12.6758V14.961H16.8464V11.7565C16.8464 11.4058 16.5434 11.1348 16.1686 11.1348ZM15.5705 13.2791H13.9357V12.8087H15.5705V13.2791Z" fill="#DEE6F2"/>
    <path d="M8.1543 18.5005C8.1543 18.8433 8.45733 19.1143 8.83213 19.1143H12.3249V15.2881H8.1543V18.5005ZM9.2468 16.5077L9.5578 16.1968L10.2436 16.8823L10.9613 16.1649L11.2803 16.4838L10.5626 17.2012L11.2484 17.8867L10.9374 18.1976L10.2516 17.5121L9.52591 18.2375L9.20693 17.9186L9.9326 17.1932L9.2468 16.5077Z" fill="#DEE6F2"/>
    <path d="M8.1543 11.7487V14.9532H12.3249V11.127H8.83213C8.45733 11.1349 8.1543 11.4059 8.1543 11.7487ZM9.04744 12.8169H10.0203V11.8045H10.4749V12.8169H11.4478V13.2553H10.4749V14.2756H10.0203V13.2553H9.04744V12.8169Z" fill="#DEE6F2"/>
    <path d="M12.5 2.94824C6.97369 2.94824 2.5 7.42812 2.5 12.9522C2.5 18.4763 6.98166 22.9482 12.5 22.9482C18.0263 22.9482 22.5 18.4684 22.5 12.9522C22.5 7.42812 18.0263 2.94824 12.5 2.94824ZM18.4011 10.1942V19.409C18.4011 19.7836 18.0981 20.0865 17.7233 20.0865H7.27672C6.90192 20.0865 6.59889 19.7836 6.59889 19.409V10.1942V6.49547C6.59889 6.12082 6.90192 5.81791 7.27672 5.81791H17.7153C18.0901 5.81791 18.3931 6.12082 18.3931 6.49547V10.1942H18.4011Z" fill="#DEE6F2"/>
    <path d="M16.9346 6.80615H8.067C7.73207 6.80615 7.46094 7.14892 7.46094 7.5714V8.40838C7.46094 8.61563 7.52473 8.79898 7.6284 8.93449C7.74004 9.07797 7.89156 9.16564 8.05902 9.16564H16.9266C17.2616 9.16564 17.5327 8.82287 17.5327 8.4004V7.56342C17.5327 7.55545 17.5327 7.54749 17.5327 7.53952C17.5247 7.13299 17.2616 6.80615 16.9346 6.80615Z" fill="#DEE6F2"/>
    </svg>
    