<svg width="25" height="25" viewBox="0 0 25 25" fill="none" xmlns="http://www.w3.org/2000/svg">
    <circle cx="12.5" cy="12.9482" r="12" fill="#DEE6F2"/>
    <circle cx="12.5" cy="12.9482" r="9.5" fill="#005883" stroke="#DEE6F2"/>
    <path d="M10.2825 8.49854H9.64453V9.76648H10.2825V8.49854Z" fill="#DEE6F2"/>
    <path d="M15.3606 8.49854H14.7227V9.76648H15.3606V8.49854Z" fill="#DEE6F2"/>
    <path d="M8.37109 17.3902H16.6247V11.0425H8.37109V17.3902ZM13.8416 14.4715H13.4349V13.7538H13.8256C14.1606 13.7458 14.5912 13.6182 14.5912 13.2594C14.5912 13.0042 14.3838 12.8128 13.9612 12.8128C13.6103 12.8128 13.2435 12.9643 13.0681 13.068L12.8607 12.3423C13.1159 12.1749 13.6342 12.0154 14.1845 12.0154C15.1016 12.0154 15.6119 12.4938 15.6119 13.0839C15.6119 13.5385 15.3567 13.8973 14.8304 14.0808V14.0967C15.3488 14.1924 15.7555 14.5752 15.7555 15.1414C15.7555 15.8989 15.0936 16.4492 14.0011 16.4492C13.4508 16.4492 12.9803 16.3056 12.7331 16.1461L12.9405 15.3965C13.1159 15.4922 13.5306 15.6597 13.9373 15.6597C14.4556 15.6597 14.7188 15.4125 14.7188 15.0855C14.7028 14.6709 14.2802 14.4715 13.8416 14.4715ZM9.0888 15.7713L9.63904 15.269C10.5721 14.4316 11.0266 13.9532 11.0425 13.4508C11.0425 13.0999 10.8352 12.8288 10.3408 12.8288C9.97396 12.8288 9.64701 13.0122 9.42372 13.1876L9.13664 12.4699C9.45562 12.2227 9.95801 12.0313 10.5401 12.0313C11.5051 12.0313 12.0394 12.5975 12.0394 13.379C12.0394 14.0967 11.521 14.6709 10.899 15.2211L10.5003 15.5481V15.564H12.1191V16.3854H9.08082V15.7713H9.0888Z" fill="#DEE6F2"/>
    <path d="M12.5 22.9482C18.0263 22.9482 22.5 18.4666 22.5 12.9482C22.5 7.42193 18.0183 2.94824 12.5 2.94824C6.97369 2.94824 2.50001 7.4299 2.50001 12.9482C2.49204 18.4666 6.97369 22.9482 12.5 22.9482ZM7.73924 9.13644H9.00718V8.18748C9.00718 8.01204 9.15072 7.8685 9.32616 7.8685H10.5941C10.7695 7.8685 10.9131 8.01204 10.9131 8.18748V9.13644H14.0869V8.18748C14.0869 8.01204 14.2305 7.8685 14.4059 7.8685H15.6738C15.8493 7.8685 15.9928 8.01204 15.9928 8.18748V9.13644H17.2608V18.028H7.73924V9.13644Z" fill="#DEE6F2"/>
    </svg>
    