<svg width="25" height="25" viewBox="0 0 25 25" fill="none" xmlns="http://www.w3.org/2000/svg">
    <circle cx="12.5" cy="12.9482" r="12" fill="#DEE6F2"/>
    <circle cx="12.5" cy="12.9482" r="9.5" fill="#005883" stroke="#DEE6F2"/>
    <path d="M12.5 22.9473C18.0263 22.9473 22.5 18.4674 22.5 12.9433C22.5 7.41917 18.0183 2.94727 12.5 2.94727C6.97368 2.94727 2.50001 7.42714 2.50001 12.9433C2.49204 18.4754 6.97368 22.9473 12.5 22.9473ZM16.0167 7.06843L17.4681 9.30837H16.7823V17.1202H15.2352V9.30837H14.5494L16.0167 7.06843ZM12.508 8.31993L13.9593 10.5599H13.2735V17.1202H11.7265V10.5599H11.0407L12.508 8.31993ZM9.00717 10.0497L10.4585 12.2896H9.77273V17.1202H8.21771V12.2896H7.53189L9.00717 10.0497ZM7.00559 17.9014C7.00559 17.6145 7.23684 17.3753 7.53189 17.3753H17.4681C17.7552 17.3753 17.9944 17.6145 17.9944 17.9014V18.308C17.9944 18.5949 17.7552 18.8341 17.4681 18.8341H7.53189C7.24481 18.8341 7.00559 18.5949 7.00559 18.308V17.9014Z" fill="#DEE6F2"/>
    </svg>
     