<svg width="24" height="24" viewBox="0 0 24 24" fill="none" xmlns="http://www.w3.org/2000/svg">
    <circle cx="12" cy="12" r="12" fill="#DEE6F2"/>
    <circle cx="12" cy="12" r="10" fill="#005883" stroke="#DEE6F2"/>
    <path d="M18.3756 6.93799H5.6229C5.37407 6.93799 5.17969 7.14016 5.17969 7.38122V14.9862C5.17969 15.235 5.38184 15.4294 5.6229 15.4294H18.3756C18.6245 15.4294 18.8189 15.2272 18.8189 14.9862V7.38122C18.8189 7.14016 18.6167 6.93799 18.3756 6.93799Z" fill="#DEE6F2"/>
    <path d="M12 2C6.47898 2 2 6.479 2 12C2 17.521 6.47898 22 12 22C17.521 22 22 17.521 22 12C22 6.479 17.521 2 12 2ZM19.0451 16.2846H13.3764V18.3297H15.4292C15.6781 18.3297 15.8725 18.5319 15.8725 18.773V19.2629C15.8725 19.5117 15.6703 19.7061 15.4292 19.7061H8.57852C8.32968 19.7061 8.1353 19.5039 8.1353 19.2629V18.773C8.1353 18.5241 8.33746 18.3297 8.57852 18.3297H10.6314V16.2846H4.96265C4.71381 16.2846 4.51944 16.0824 4.51944 15.8414V6.549C4.51944 6.30016 4.72159 6.10576 4.96265 6.10576H19.0607C19.3095 6.10576 19.5039 6.30794 19.5039 6.549V15.8414C19.4961 16.0824 19.2939 16.2846 19.0451 16.2846Z" fill="#DEE6F2"/>
    </svg>
    