<svg width="25" height="24" viewBox="0 0 25 24" fill="none" xmlns="http://www.w3.org/2000/svg">
    <circle cx="12.5" cy="12" r="12" fill="#DEE6F2"/>
    <circle cx="12.5" cy="12" r="9.5" fill="#005883" stroke="#DEE6F2"/>
    <path d="M15.9108 15.7505H8.72064C8.64092 15.7505 8.57715 15.8143 8.57715 15.894C8.57715 15.9737 8.64092 16.0375 8.72064 16.0375H15.9108C15.9905 16.0375 16.0542 15.9737 16.0542 15.894C16.0542 15.8143 15.9905 15.7505 15.9108 15.7505Z" fill="#DEE6F2"/>
    <path d="M15.9108 12.4023H8.72064C8.64092 12.4023 8.57715 12.4661 8.57715 12.5458C8.57715 12.6255 8.64092 12.6893 8.72064 12.6893H15.9108C15.9905 12.6893 16.0542 12.6255 16.0542 12.5458C16.0542 12.4661 15.9905 12.4023 15.9108 12.4023Z" fill="#DEE6F2"/>
    <path d="M15.9108 14.0767H8.72064C8.64092 14.0767 8.57715 14.1404 8.57715 14.2201C8.57715 14.2999 8.64092 14.3636 8.72064 14.3636H15.9108C15.9905 14.3636 16.0542 14.2999 16.0542 14.2201C16.0542 14.1404 15.9905 14.0767 15.9108 14.0767Z" fill="#DEE6F2"/>
    <path d="M12.496 22C18.0201 22 22.5 17.5201 22.5 11.996C22.5 6.4719 18.0201 2 12.496 2C6.9719 2 2.50001 6.47987 2.50001 11.996C2.49204 17.5281 6.9719 22 12.496 22ZM13.0062 6.26465L17.0397 10.043H13.0062V6.26465ZM7.95237 6.26465H12.7192V10.043C12.7192 10.2025 12.8468 10.33 13.0062 10.33H17.0397V17.7354H7.9444V6.26465H7.95237Z" fill="#DEE6F2"/>
    </svg>
    