<svg width="18" height="18" viewBox="0 0 18 18" fill="none" xmlns="http://www.w3.org/2000/svg">
    <circle cx="9" cy="9" r="9" fill="#DEE6F2"/>
    <circle cx="9" cy="9" r="7.5" fill="#005883" stroke="#DEE6F2"/>
    <path d="M9.00319 17C13.4225 17 17 13.4161 17 8.99681C17 4.57752 13.4161 1 9.00319 1C4.59028 1 1 4.5839 1 9.00319C1 13.4225 4.5839 17 9.00319 17ZM10.0873 5.35552L12.9633 5.02391L12.6636 7.91909L11.8027 7.06457L10.3806 8.4994L9.51974 7.64488L10.9418 6.21004L10.0873 5.35552ZM10.3743 9.53886L11.8091 10.9609L12.6636 10.1L12.9952 12.9761L10.1 12.6764L10.9546 11.8155L9.51974 10.3934L10.3743 9.53886ZM7.95736 5.32363L7.10283 6.18454L8.53766 7.60661L7.68315 8.46752L6.24831 7.04544L5.39378 7.90634L5.06217 5.03029L7.95736 5.32363ZM5.30451 10.0618L6.16541 10.9163L7.58749 9.48147L8.44839 10.336L7.02631 11.7708L7.88721 12.6253L5.01116 12.957L5.30451 10.0618Z" fill="#DEE6F2"/>
    </svg>
    