<svg width="28" height="28" viewBox="0 0 28 28" fill="none" xmlns="http://www.w3.org/2000/svg">
<path d="M14 0C6.26317 0 0 6.27432 0 14C0 21.7368 6.27433 28 14 28C21.7368 28 28 21.7257 28 14C28.0111 6.26315 21.7368 0 14 0ZM21.4354 21.5582C21.1451 21.8485 20.7655 22.0048 20.386 22.0048C20.0175 22.0048 19.6491 21.8708 19.3589 21.5917L14.48 16.8357C13.6985 17.2376 12.8166 17.4721 11.8788 17.4721C8.71931 17.4721 6.16267 14.9155 6.16267 11.756C6.16267 8.59649 8.71931 6.03988 11.8788 6.03988C15.0383 6.03988 17.606 8.59649 17.606 11.756C17.606 12.9171 17.26 13.9888 16.6683 14.882L21.4131 19.504C21.9824 20.051 21.9936 20.9777 21.4354 21.5582Z" fill="#434F63"/>
<path d="M11.8782 7.98242C9.80161 7.98242 8.12695 9.65707 8.12695 11.7336C8.12695 13.8102 9.80161 15.4848 11.8782 15.4848C12.6038 15.4848 13.2849 15.2727 13.8542 14.9154C14.2115 14.6922 14.5352 14.4131 14.792 14.0893C15.3056 13.4418 15.6182 12.6268 15.6182 11.7336C15.6294 9.65707 13.9547 7.98242 11.8782 7.98242Z" fill="#434F63"/>
</svg>
