<svg width="18" height="18" viewBox="0 0 18 18" fill="none" xmlns="http://www.w3.org/2000/svg">
    <circle cx="9" cy="9" r="9" fill="#DEE6F2"/>
    <circle cx="9" cy="9" r="7.5" fill="#005883" stroke="#DEE6F2"/>
    <path d="M5.98323 11.0609C5.86202 10.5377 5.79184 9.99548 5.7727 9.43408H4.26074C4.3054 9.99548 4.43937 10.5441 4.67542 11.0609H5.98323Z" fill="#DEE6F2"/>
    <path d="M5.98323 7.10498H4.67542C4.43299 7.62173 4.29902 8.16399 4.26074 8.73178H5.7727C5.79184 8.17037 5.86202 7.62811 5.98323 7.10498Z" fill="#DEE6F2"/>
    <path d="M12.0758 8.73178H13.5877C13.5431 8.16399 13.4091 7.62173 13.1667 7.10498H11.8652C11.9864 7.62811 12.0566 8.17037 12.0758 8.73178Z" fill="#DEE6F2"/>
    <path d="M10.913 11.7559H9.27344V13.6952C9.92416 13.5039 10.5175 12.8021 10.913 11.7559Z" fill="#DEE6F2"/>
    <path d="M6.9325 4.86572C6.20523 5.21022 5.58003 5.72697 5.10156 6.4096H6.17334C6.3711 5.80991 6.63266 5.2804 6.9325 4.86572Z" fill="#DEE6F2"/>
    <path d="M9.27344 4.47021V6.4096H10.913C10.5175 5.36335 9.92416 4.6616 9.27344 4.47021Z" fill="#DEE6F2"/>
    <path d="M11.1196 7.10498H9.26953V8.73178H11.3365C11.3174 8.17037 11.2536 7.62173 11.1196 7.10498Z" fill="#DEE6F2"/>
    <path d="M9.00001 17C13.4211 17 17 13.4147 17 9.00001C17 4.57896 13.4147 1 9.00001 1C4.57896 1 1.00001 4.58534 1.00001 9.00001C0.993629 13.4147 4.57896 17 9.00001 17ZM3.51994 8.73205H3.54546C3.58374 8.17065 3.69857 7.62838 3.90272 7.10526H3.86444L4.126 6.59489L4.2217 6.4035H4.24084C5.14674 4.82137 6.76077 3.8134 8.57257 3.69857V3.67305H9.26795V3.69857C11.0798 3.8134 12.6938 4.82137 13.5997 6.4035H13.6188L13.7145 6.59489L13.9761 7.10526H13.9378C14.1483 7.62838 14.2632 8.17065 14.3014 8.73205H14.3206V9.42744H14.3014C14.2632 9.98884 14.1483 10.5311 13.9378 11.0542H13.9761L13.7145 11.5646L13.6188 11.7496H13.5997C12.6938 13.3381 11.0734 14.3397 9.26795 14.4609V14.4801H8.57257V14.4609C6.76077 14.3461 5.14674 13.3381 4.24084 11.7496H4.2217L4.126 11.5646L3.86444 11.0542H3.90272C3.69857 10.5311 3.57736 9.98884 3.54546 9.42744H3.51994V8.73205Z" fill="#DEE6F2"/>
    <path d="M8.5712 6.4096V4.47021C7.9141 4.6616 7.32718 5.36335 6.93164 6.4096H8.5712Z" fill="#DEE6F2"/>
    <path d="M5.10938 11.7559C5.58147 12.4321 6.20667 12.9552 6.94032 13.2997C6.6341 12.8851 6.37891 12.3619 6.18115 11.7559H5.10938Z" fill="#DEE6F2"/>
    <path d="M6.72719 11.0609H8.57727V9.43408H6.50391C6.52942 9.99548 6.59322 10.5441 6.72719 11.0609Z" fill="#DEE6F2"/>
    <path d="M8.5712 13.6952V11.7559H6.93164C7.32718 12.8021 7.92048 13.5039 8.5712 13.6952Z" fill="#DEE6F2"/>
    <path d="M6.50391 8.73178H8.57727V7.10498H6.72719C6.59322 7.62173 6.52942 8.17037 6.50391 8.73178Z" fill="#DEE6F2"/>
    <path d="M11.3404 9.43408H9.27344V11.0609H11.1235C11.2511 10.5441 11.3149 9.99548 11.3404 9.43408Z" fill="#DEE6F2"/>
    <path d="M12.745 6.4096C12.2729 5.73335 11.6413 5.2166 10.9141 4.86572C11.2203 5.2804 11.4691 5.80991 11.6669 6.4096H12.745Z" fill="#DEE6F2"/>
    <path d="M10.9141 13.2997C11.6413 12.9552 12.2665 12.4385 12.745 11.7559H11.6669C11.4691 12.3555 11.2203 12.8787 10.9141 13.2997Z" fill="#DEE6F2"/>
    <path d="M11.8652 11.0609H13.1667C13.4091 10.5441 13.5431 9.99548 13.5877 9.43408H12.0758C12.0566 9.9891 11.9864 10.5377 11.8652 11.0609Z" fill="#DEE6F2"/>
    </svg>
    