<svg width="20" height="20" viewBox="0 0 20 20" fill="none" xmlns="http://www.w3.org/2000/svg">
<path d="M10.0116 5.02393C9.56507 5.02393 9.19824 5.39074 9.19824 5.83731C9.19824 5.97288 9.23014 6.10048 9.29394 6.21212C9.4295 6.47528 9.70063 6.65072 10.0196 6.65072C10.3306 6.65072 10.6017 6.47528 10.7453 6.21212C10.8011 6.10048 10.841 5.97288 10.841 5.83731C10.825 5.38277 10.4662 5.02393 10.0116 5.02393Z" fill="#434F63"/>
<path d="M10.002 0C4.47564 0 0.00195312 4.48167 0.00195312 10C0.00195312 15.5263 4.48361 20 10.002 20C15.5283 20 20.002 15.5184 20.002 10C20.002 4.4737 15.5283 0 10.002 0ZM10.002 15.5263C8.43896 15.5263 8.13592 14.3301 8.13592 14.3301H11.7723C11.7723 14.3301 11.565 15.5263 10.002 15.5263ZM4.57133 13.8437L5.69573 12.0893C5.98281 7.71133 8.01631 6.52314 8.59844 6.26795C8.57452 6.15631 8.55857 6.04466 8.55857 5.92505C8.55857 5.1276 9.2045 4.47369 10.0099 4.47369C10.8153 4.47369 11.4613 5.1276 11.4613 5.92505C11.4613 6.02074 11.4533 6.11643 11.4294 6.20415C14.4437 7.75918 14.3241 12.1053 14.3241 12.1053L15.4405 13.8357H4.57133V13.8437Z" fill="#434F63"/>
</svg>
