<svg width="25" height="25" viewBox="0 0 25 25" fill="none" xmlns="http://www.w3.org/2000/svg">
    <circle cx="12.5" cy="12.9482" r="12" fill="#DEE6F2"/>
    <circle cx="12.5" cy="12.9482" r="9.5" fill="#005883" stroke="#DEE6F2"/>
    <path d="M12.5 22.9482C18.0263 22.9482 22.5 18.4745 22.5 12.9482C22.5 7.42192 18.0263 2.94824 12.5 2.94824C6.97368 2.94824 2.5 7.42192 2.5 12.9482C2.5 18.4745 6.97368 22.9482 12.5 22.9482ZM8.48086 10.6994V12.4937H12.0455V8.90518H10.2512L12.5 6.17791L14.7488 8.90518H12.9545V12.4937H16.5431V10.6994L19.2703 12.9482L16.5431 15.197V13.4028H12.9545V16.9913H14.7488L12.5 19.7186L10.2512 16.9913H12.0455V13.4028H8.48086V15.197L5.75359 12.9482L8.48086 10.6994Z" fill="#DEE6F2"/>
    </svg>
    