<svg width="34" height="34" viewBox="0 0 34 34" fill="none" xmlns="http://www.w3.org/2000/svg">
<path d="M34 17C34 7.60525 26.3842 -3.32896e-07 17.0068 -7.42797e-07C7.61578 -1.15329e-06 -3.33029e-07 7.6188 -7.43093e-07 17C-1.15375e-06 26.3947 7.61578 34 17.0068 34C26.3842 34 34 26.3947 34 17ZM9.01156 13.0957L9.01156 9.74719L16.3292 9.74719L16.3292 13.0957L9.01156 13.0957ZM9.01156 18.6675L9.01156 15.319L20.6114 15.319L20.6114 18.6675L9.01156 18.6675ZM9.01156 24.2392L9.01156 20.9043L25.002 20.9043L25.002 24.2528L9.01156 24.2528L9.01156 24.2392Z" fill="#434F63"/>
</svg>
