<svg width="25" height="25" viewBox="0 0 25 25" fill="none" xmlns="http://www.w3.org/2000/svg">
    <circle cx="12.5" cy="12.9482" r="12" fill="#DEE6F2"/>
    <circle cx="12.5" cy="12.9482" r="9.5" fill="#005883" stroke="#DEE6F2"/>
    <path d="M12.5 2.94824C6.97367 2.94824 2.5 7.42989 2.5 12.9482C2.5 18.4746 6.98164 22.9482 12.5 22.9482C18.0263 22.9482 22.5 18.4666 22.5 12.9482C22.508 7.42192 18.0263 2.94824 12.5 2.94824ZM5.94499 8.1795H19.063C19.1029 8.1795 19.1347 8.19544 19.1666 8.20342L12.5 13.7537L5.83335 8.20342C5.87322 8.19544 5.90511 8.1795 5.94499 8.1795ZM5.37879 17.2704C5.36284 17.2226 5.3469 17.1747 5.3469 17.1269V8.77759C5.3469 8.71379 5.36285 8.65796 5.38677 8.60214L10.1156 12.5415L5.37879 17.2704ZM19.063 17.717H5.94499C5.89714 17.717 5.84927 17.701 5.80142 17.6851L10.5702 12.9163L12.3086 14.3677C12.3644 14.4155 12.4282 14.4395 12.5 14.4395C12.5717 14.4395 12.6356 14.4155 12.6914 14.3677L14.4298 12.9163L19.1985 17.6851C19.1587 17.701 19.1108 17.717 19.063 17.717ZM19.6292 17.2704L14.9003 12.5336L19.6292 8.59417C19.6451 8.64999 19.6611 8.70582 19.6611 8.76962V17.1189C19.6531 17.1747 19.6372 17.2226 19.6292 17.2704Z" fill="#DEE6F2"/>
    </svg>
    