<svg width="25" height="25" viewBox="0 0 25 25" fill="none" xmlns="http://www.w3.org/2000/svg">
    <circle cx="12.5" cy="12.9482" r="12" fill="#DEE6F2"/>
    <circle cx="12.5" cy="12.9482" r="9.5" fill="#005883" stroke="#DEE6F2"/>
    <path d="M10.2748 15.4922C9.66075 15.4922 9.15039 15.9946 9.15039 16.6166C9.15039 17.2386 9.65278 17.741 10.2748 17.741C10.8968 17.741 11.3912 17.2386 11.3912 16.6166C11.3912 15.9946 10.8968 15.4922 10.2748 15.4922Z" fill="#DEE6F2"/>
    <path d="M18.2172 16.2817C17.9381 16.2817 17.7148 16.505 17.7148 16.7841C17.7148 17.0632 17.9381 17.2865 18.2172 17.2865C18.4963 17.2865 18.7196 17.0632 18.7196 16.7841C18.7196 16.505 18.4963 16.2817 18.2172 16.2817Z" fill="#DEE6F2"/>
    <path d="M12.5 2.94824C6.97369 2.94824 2.5 7.4299 2.5 12.9482C2.5 18.4746 6.98166 22.9482 12.5 22.9482C18.0263 22.9482 22.5 18.4666 22.5 12.9482C22.5 7.42192 18.0263 2.94824 12.5 2.94824ZM13.9434 17.1269H12.9306C12.8589 17.4937 12.7233 17.8366 12.516 18.1317L13.2257 18.8414L12.5 19.5671L11.7903 18.8573C11.4952 19.0567 11.1523 19.2003 10.7855 19.272V20.2848H9.75678V19.28C9.38995 19.2082 9.04705 19.0647 8.75199 18.8653L8.04226 19.5751L7.31659 18.8494L8.02632 18.1396C7.82696 17.8366 7.68341 17.5017 7.61164 17.1349H6.60686V16.1061H7.61164C7.68341 15.7393 7.82696 15.3964 8.02632 15.1014L7.31659 14.3916L8.04226 13.6659L8.75199 14.3757C9.04705 14.1763 9.38995 14.0328 9.75678 13.961V12.9482H10.7855V13.953C11.1523 14.0248 11.4952 14.1604 11.7903 14.3677L12.5 13.658L13.2257 14.3837L12.516 15.0934C12.7153 15.3884 12.8589 15.7313 12.9306 16.0982H13.9434V17.1269ZM19.0391 17.5097C18.7839 17.7649 18.449 17.8924 18.1061 17.8924C17.7711 17.8924 17.4362 17.7649 17.173 17.5097L10.6898 11.0264L10.6818 11.0184C9.71691 11.3294 8.60845 11.1062 7.8429 10.3406C7.10925 9.60696 6.87002 8.57025 7.1252 7.64521L8.70415 9.22418L10.2512 8.80949L10.6659 7.26245L9.08692 5.68348C10.0199 5.42829 11.0566 5.66753 11.7823 6.40118C12.5159 7.13483 12.7552 8.18747 12.492 9.12049L19.0311 15.6516C19.5494 16.162 19.5494 16.9993 19.0391 17.5097Z" fill="#DEE6F2"/>
    </svg>
    