<svg width="18" height="18" viewBox="0 0 18 18" fill="none" xmlns="http://www.w3.org/2000/svg">
    <circle cx="9" cy="9" r="9" fill="#DEE6F2"/>
    <circle cx="9" cy="9" r="7.5" fill="#005883" stroke="#DEE6F2"/>
    <path d="M9 1C4.57895 1 1 4.5839 1 8.99681C1 13.4161 4.58533 17 9 17C13.4147 17 17 13.4161 17 8.99681C17.0064 4.57752 13.4211 1 9 1ZM11.0096 6.43962L12.5343 4.85173C12.681 4.69231 12.9298 4.69231 13.0893 4.83898C13.2488 4.99203 13.2488 5.23435 13.1021 5.39378L11.5773 6.98167C11.4306 7.13472 11.1818 7.14109 11.0223 6.99442C10.8628 6.84137 10.8628 6.59267 11.0096 6.43962ZM8.66188 3.58908C8.66188 3.37226 8.84052 3.20008 9.05104 3.20008C9.26795 3.20008 9.44019 3.37864 9.44019 3.58908V5.78916C9.44019 6.00598 9.26795 6.17816 9.05104 6.17816C8.83414 6.17816 8.66188 6.00598 8.66188 5.78916V3.58908ZM4.92344 4.85173C5.07017 4.69231 5.31899 4.69231 5.47848 4.83898L7.06699 6.36309C7.2201 6.50976 7.22647 6.75847 7.07974 6.9179C6.93301 7.07094 6.68421 7.07732 6.52472 6.93065L4.93621 5.40654C4.7831 5.25349 4.77671 5.00478 4.92344 4.85173ZM3.20096 8.99681C3.20096 8.77999 3.37321 8.60781 3.59012 8.60781H5.79107C6.00798 8.60781 6.18023 8.77999 6.18023 8.99681C6.18023 9.21363 6.00798 9.38581 5.79107 9.38581H3.59012C3.37321 9.38581 3.20096 9.21363 3.20096 8.99681ZM7.00958 11.554L5.44019 13.1036C5.28708 13.2567 5.03828 13.2567 4.88517 13.1036C4.73206 12.9506 4.73206 12.7019 4.88517 12.5488L6.45454 10.9992C6.60765 10.8462 6.85647 10.8462 7.00958 11.0056C7.16269 11.1586 7.16269 11.4073 7.00958 11.554ZM9.44657 14.4045C9.44657 14.6214 9.27432 14.7935 9.05741 14.7935C8.84051 14.7935 8.66827 14.615 8.66827 14.4045V12.2045C8.66827 11.9876 8.84689 11.8155 9.05741 11.8155C9.27432 11.8155 9.44657 11.994 9.44657 12.2045V14.4045ZM9.01276 11.6369C7.55184 11.6369 6.37162 10.4508 6.37162 8.99681C6.37162 7.53647 7.55184 6.35672 9.01276 6.35672C10.4737 6.35672 11.6539 7.54284 11.6539 8.99681C11.6539 10.4572 10.4737 11.6369 9.01276 11.6369ZM13.134 13.1036C12.9809 13.2567 12.732 13.2567 12.5789 13.0973L11.0287 11.5285C10.8756 11.3755 10.8756 11.1267 11.0287 10.9737C11.1818 10.8206 11.4306 10.8206 11.5837 10.9737L13.134 12.5424C13.2871 12.7019 13.2871 12.9506 13.134 13.1036ZM14.799 8.99681C14.799 9.21363 14.6268 9.38581 14.4099 9.38581H12.2089C11.992 9.38581 11.8198 9.21363 11.8198 8.99681C11.8198 8.77999 11.9984 8.60781 12.2089 8.60781H14.4099C14.6268 8.60781 14.799 8.77999 14.799 8.99681Z" fill="#DEE6F2"/>
    </svg>
    