<svg width="25" height="25" viewBox="0 0 25 25" fill="none" xmlns="http://www.w3.org/2000/svg">
    <circle cx="12.5" cy="12.9482" r="12" fill="#DEE6F2"/>
    <circle cx="12.5" cy="12.9482" r="9.8" fill="#005883" stroke="#DEE6F2" stroke-width="0.4"/>
    <path d="M19.0333 10.2111C17.7502 8.928 16.4672 7.64495 15.1764 6.35413C15.153 6.3308 15.1219 6.30747 15.0908 6.27637C14.4299 6.93733 13.7767 7.59052 13.1235 8.25149C12.9446 8.43034 12.7891 8.64806 12.7658 8.90467C12.7502 9.08352 12.8202 9.2857 12.9835 9.37901C13.1468 9.45677 13.3412 9.42567 13.5045 9.37901C13.9166 9.2546 14.2355 8.95133 14.632 8.78026C14.7876 8.7025 14.9664 8.62474 15.1453 8.65584C15.223 8.67139 15.3086 8.71805 15.3241 8.80358C15.3552 8.98243 15.3008 9.16128 15.2386 9.33236C15.153 9.55786 15.0597 9.78337 14.9509 10.0011C14.8653 10.2111 14.7565 10.4288 14.8109 10.6621C14.842 10.8409 14.9897 11.0198 15.1841 11.012C15.5418 10.9964 15.8684 10.7865 16.2261 10.802C16.405 10.8176 16.5449 10.9809 16.5527 11.1597C16.576 11.5097 16.4283 11.8285 16.3817 12.1706C16.3817 12.2484 16.3661 12.3339 16.405 12.4039C16.4905 12.505 16.6227 12.5672 16.7549 12.5594C16.9493 12.5516 17.1359 12.4661 17.2992 12.3572C17.5869 12.1628 17.8202 11.9062 18.0613 11.6652C18.4501 11.2686 18.8544 10.872 19.251 10.4754C19.2121 10.351 19.0955 10.2888 19.0333 10.2111Z" fill="#DEE6F2"/>
    <path d="M7.1497 17.4895C6.77645 17.5439 6.48874 17.9094 6.51207 18.2827C6.51984 18.6948 6.90864 19.0525 7.32077 19.0214C7.74068 19.0136 8.09839 18.6093 8.05173 18.1894C8.03618 17.7539 7.58516 17.404 7.1497 17.4895Z" fill="#DEE6F2"/>
    <path d="M12.5006 10.911C12.0729 10.4911 11.653 10.0556 11.2175 9.63574C11.2098 9.63574 11.1942 9.64352 11.1787 9.64352C10.821 9.99344 10.4711 10.3434 10.1289 10.7011C10.1678 10.7788 10.2455 10.8255 10.3 10.8877C11.7619 12.3496 13.2315 13.8115 14.6856 15.2734C14.7401 15.32 14.779 15.3978 14.8489 15.4211C15.2066 15.0712 15.5566 14.7213 15.9065 14.3714C15.9454 14.348 15.8987 14.3091 15.8832 14.2936C14.7479 13.1583 13.6203 12.0385 12.5006 10.911Z" fill="#DEE6F2"/>
    <path d="M12.5 2.94824C6.97901 2.94824 2.5 7.42724 2.5 12.9482C2.5 18.4692 6.97901 22.9482 12.5 22.9482C18.021 22.9482 22.5 18.4692 22.5 12.9482C22.5 7.42724 18.021 2.94824 12.5 2.94824ZM14.8484 16.2453C14.7084 16.2064 14.5918 16.1364 14.4596 16.082C13.8608 15.8254 13.2387 15.5999 12.6011 15.4755C12.2512 15.421 11.8624 15.3821 11.5436 15.561C11.3103 15.7398 11.1625 16.0042 11.007 16.2453C10.6182 16.914 10.3616 17.6527 9.93391 18.2982C9.77839 18.547 9.56844 18.7492 9.35071 18.9358C8.78306 19.4179 8.10654 19.7834 7.36782 19.9311C6.96346 20.0089 6.51245 20.0167 6.1392 19.8145C5.84371 19.659 5.6493 19.3557 5.58709 19.0369C5.50933 18.6481 5.56376 18.2515 5.66485 17.8705C5.85147 17.2484 6.17808 16.673 6.59021 16.1831C6.74573 16.0042 6.90902 15.8254 7.10342 15.6854C7.63219 15.3355 8.26205 15.1722 8.81415 14.8611C9.2185 14.659 9.57621 14.3868 9.89503 14.068C10.0194 13.928 10.0505 13.7258 10.0583 13.547C10.0583 13.2048 10.0039 12.8627 9.91058 12.5361C9.76284 11.9296 9.5451 11.3386 9.30404 10.7632C9.25739 10.6854 9.34293 10.6388 9.38959 10.5921C9.99612 9.99334 10.5871 9.38681 11.1936 8.79583C11.6135 9.19241 12.0023 9.60454 12.4145 10.0089C13.783 11.3853 15.1594 12.7616 16.5358 14.1302C16.6058 14.208 16.6835 14.2702 16.7457 14.3479C16.1159 14.9778 15.4782 15.6154 14.8484 16.2453ZM17.4922 13.6014C17.2434 13.8425 17.0101 14.0913 16.7535 14.3246C16.4036 13.9825 16.0614 13.6325 15.7115 13.2826C14.2107 11.7818 12.71 10.2811 11.2092 8.78028C11.2403 8.7414 11.2714 8.70252 11.3103 8.66364C12.5 7.48168 13.682 6.29194 14.8717 5.10998C14.9495 5.04 15.0117 4.95446 15.0972 4.89225C15.1672 4.91558 15.2138 4.99334 15.2683 5.04C16.7457 6.51745 18.2232 7.98712 19.6929 9.46457C19.7006 9.47234 19.7084 9.48012 19.7162 9.4879L20.6493 10.4444L20.1439 10.9498C19.2496 11.8363 18.3709 12.7227 17.4922 13.6014Z" fill="#DEE6F2"/>
    </svg>
    