<svg width="25" height="24" viewBox="0 0 25 24" fill="none" xmlns="http://www.w3.org/2000/svg">
    <circle cx="12.5" cy="12" r="12" fill="#DEE6F2"/>
    <circle cx="12.5" cy="12" r="9.7" fill="#005883" stroke="#DEE6F2" stroke-width="0.6"/>
    <path d="M19.4476 7.62207H5.54563C5.22678 7.62207 4.97168 7.86928 4.97168 8.18028V15.8198C4.97168 16.1308 5.22678 16.3781 5.54563 16.3781H19.4476C19.7665 16.3781 20.0216 16.1308 20.0216 15.8198V8.18028C20.0216 7.87725 19.7665 7.62207 19.4476 7.62207ZM9.49144 15.6683L9.06893 15.2377L9.33999 13.1723H9.65884L9.94578 15.2377L9.49144 15.6683ZM9.1646 12.7098L9.26822 12.5981H9.71462L9.80231 12.7098L9.65086 13.0846H9.33201L9.1646 12.7098ZM13.2937 15.7959H12.9031C12.9031 14.1372 11.7393 12.7497 10.1849 12.4307C10.9581 12.1516 11.5082 11.41 11.5082 10.5407C11.5082 9.43228 10.6074 8.53115 9.49941 8.53115C8.3914 8.53115 7.49063 9.43228 7.49063 10.5407C7.49063 11.41 8.04065 12.1516 8.81387 12.4307C7.26744 12.7497 6.09564 14.1372 6.09564 15.7959H5.70506V8.21217H13.2858V15.7959H13.2937ZM18.3954 14.8071H13.9314V14.0176H18.3954V14.8071ZM19.5273 13.4115H13.9394V12.6221H19.5273V13.4115ZM19.5273 12.008H13.9394V11.2186H19.5273V12.008ZM19.5273 10.6125H13.9394V9.08937H19.5273V10.6125Z" fill="#DEE6F2"/>
    <path d="M12.496 2C6.97189 2 2.5 6.48165 2.5 12C2.5 17.5263 6.97987 22 12.496 22C18.0201 22 22.5 17.5183 22.5 12C22.492 6.47368 18.0201 2 12.496 2ZM20.0688 17.008H4.92327C4.5805 17.008 4.30152 16.7209 4.30152 16.37V7.62999C4.30152 7.27911 4.5805 6.99203 4.92327 6.99203H20.0688C20.4115 6.99203 20.6905 7.27911 20.6905 7.62999V16.37C20.6905 16.7209 20.4115 17.008 20.0688 17.008Z" fill="#DEE6F2"/>
    </svg>
    