<svg width="25" height="24" viewBox="0 0 25 24" fill="none" xmlns="http://www.w3.org/2000/svg">
    <circle cx="12.5" cy="12" r="12" fill="#DEE6F2"/>
    <circle cx="12.5" cy="12" r="9.5" fill="#005883" stroke="#DEE6F2"/>
    <path d="M12.666 18.1659H16.1588C16.5336 18.1659 16.8367 17.8869 16.8367 17.5521V14.3477H12.666V18.1659ZM13.5671 15.5673H15.9515V15.9977H13.5671V15.5673ZM13.5671 16.5159H15.9515V16.9463H13.5671V16.5159Z" fill="#DEE6F2"/>
    <path d="M16.1686 10.1865H12.6758V14.0128H16.8464V10.8083C16.8464 10.4576 16.5434 10.1865 16.1686 10.1865ZM15.5705 12.3308H13.9357V11.8605H15.5705V12.3308Z" fill="#DEE6F2"/>
    <path d="M8.1543 17.5523C8.1543 17.895 8.45733 18.166 8.83213 18.166H12.3249V14.3398H8.1543V17.5523ZM9.2468 15.5595L9.5578 15.2486L10.2436 15.9341L10.9613 15.2167L11.2803 15.5355L10.5626 16.2529L11.2484 16.9385L10.9374 17.2494L10.2516 16.5638L9.52591 17.2892L9.20693 16.9704L9.9326 16.245L9.2468 15.5595Z" fill="#DEE6F2"/>
    <path d="M8.1543 10.8005V14.0049H12.3249V10.1787H8.83213C8.45733 10.1867 8.1543 10.4577 8.1543 10.8005ZM9.04744 11.8686H10.0203V10.8563H10.4749V11.8686H11.4478V12.307H10.4749V13.3274H10.0203V12.307H9.04744V11.8686Z" fill="#DEE6F2"/>
    <path d="M12.5 2C6.97369 2 2.5 6.47987 2.5 12.004C2.5 17.5281 6.98166 22 12.5 22C18.0263 22 22.5 17.5201 22.5 12.004C22.5 6.47987 18.0263 2 12.5 2ZM18.4011 9.24591V18.4607C18.4011 18.8354 18.0981 19.1383 17.7233 19.1383H7.27672C6.90192 19.1383 6.59889 18.8354 6.59889 18.4607V9.24591V5.54723C6.59889 5.17258 6.90192 4.86967 7.27672 4.86967H17.7153C18.0901 4.86967 18.3931 5.17258 18.3931 5.54723V9.24591H18.4011Z" fill="#DEE6F2"/>
    <path d="M16.9346 5.85791H8.067C7.73207 5.85791 7.46094 6.20068 7.46094 6.62316V7.46014C7.46094 7.66739 7.52473 7.85073 7.6284 7.98624C7.74004 8.12973 7.89156 8.2174 8.05902 8.2174H16.9266C17.2616 8.2174 17.5327 7.87463 17.5327 7.45216V6.61518C17.5327 6.60721 17.5327 6.59925 17.5327 6.59128C17.5247 6.18475 17.2616 5.85791 16.9346 5.85791Z" fill="#DEE6F2"/>
    </svg>
    