<svg width="25" height="25" viewBox="0 0 25 25" fill="none" xmlns="http://www.w3.org/2000/svg">
    <circle cx="12.5" cy="12.9482" r="12" fill="#DEE6F2"/>
    <circle cx="12.5" cy="12.9482" r="9.5" fill="#005883" stroke="#DEE6F2"/>
    <path d="M12.0833 22.9498C6.79167 22.9498 2.5 18.6162 2.5 13.3657V12.5323C2.5 7.28192 6.79167 2.94824 12.0833 2.94824H12.9167C18.2083 2.94824 22.5 7.28192 22.5 12.5323V13.3657C22.5 18.6162 18.2083 22.9498 12.9167 22.9498H12.0833Z" fill="#DEE6F2"/>
    <path d="M16.7629 18.1162H7.54297V8.89551H14.4579V9.81758H8.46496V17.1941H15.8409V11.2007H16.7629V18.1162Z" fill="#005883"/>
    <path d="M11.7857 14.4743L10.7715 14.8892L11.1403 13.8289L16.0269 8.94189L16.3496 9.26462L16.7184 9.58735L11.7857 14.4743Z" fill="#005883"/>
    <path d="M17.0466 7.94821L16.3945 8.6001L17.0464 9.25217L17.6984 8.60028L17.0466 7.94821Z" fill="#005883"/>
    </svg>
    