<svg width="20" height="20" viewBox="0 0 20 20" fill="none" xmlns="http://www.w3.org/2000/svg">
<path d="M9.99998 0C4.47367 0 0 4.48165 0 10C0 15.5263 4.48164 20 9.99998 20C15.5263 20 20 15.5183 20 10C20.008 4.47368 15.5263 0 9.99998 0ZM3.44499 5.23126H16.563C16.6029 5.23126 16.6347 5.2472 16.6666 5.25518L9.99998 10.8054L3.33335 5.25518C3.37322 5.2472 3.40511 5.23126 3.44499 5.23126ZM2.87879 14.3222C2.86284 14.2743 2.8469 14.2265 2.8469 14.1786V5.82935C2.8469 5.76555 2.86285 5.70972 2.88677 5.6539L7.61562 9.5933L2.87879 14.3222ZM16.563 14.7687H3.44499C3.39714 14.7687 3.34927 14.7528 3.30142 14.7368L8.07018 9.9681L9.8086 11.4195C9.86442 11.4673 9.92821 11.4912 9.99998 11.4912C10.0717 11.4912 10.1356 11.4673 10.1914 11.4195L11.9298 9.9681L16.6985 14.7368C16.6587 14.7528 16.6108 14.7687 16.563 14.7687ZM17.1292 14.3222L12.4003 9.58533L17.1292 5.64593C17.1451 5.70175 17.1611 5.75758 17.1611 5.82137V14.1707C17.1531 14.2265 17.1372 14.2743 17.1292 14.3222Z" fill="#434F63"/>
</svg>
