<svg width="25" height="25" viewBox="0 0 25 25" fill="none" xmlns="http://www.w3.org/2000/svg">
    <circle cx="12.5" cy="12.9482" r="12" fill="#DEE6F2"/>
    <circle cx="12.5" cy="12.9482" r="9.5" fill="#005883" stroke="#DEE6F2"/>
    <path d="M12.504 2.94824C6.97987 2.94824 2.5 7.4299 2.5 12.9482C2.5 18.4746 6.97987 22.9482 12.504 22.9482C18.0281 22.9482 22.5 18.4666 22.5 12.9482C22.508 7.4299 18.0281 2.94824 12.504 2.94824ZM7.56178 18.2433C7.56178 15.827 9.25965 13.8175 11.5155 13.347C10.3916 12.9403 9.58648 11.8637 9.58648 10.5958C9.58648 8.97695 10.8938 7.66914 12.5119 7.66914C14.1301 7.66914 15.4374 8.97695 15.4374 10.5958C15.4374 11.8637 14.6323 12.9403 13.5084 13.347C14.0663 13.4586 14.5925 13.6739 15.0628 13.961C16.1708 14.6388 16.9998 15.7393 17.3107 17.0392C17.4063 17.4219 17.4542 17.8286 17.4542 18.2433H7.56178Z" fill="#DEE6F2"/>
    </svg>
    