<svg width="25" height="25" viewBox="0 0 25 25" fill="none" xmlns="http://www.w3.org/2000/svg">
    <circle cx="12.5" cy="12.9482" r="12" fill="#DEE6F2"/>
    <circle cx="12.5" cy="12.9482" r="9.5" fill="#005883" stroke="#DEE6F2"/>
    <path d="M12.5 2.94824C6.97368 2.94824 2.5 7.4299 2.5 12.9482C2.5 18.4746 6.98165 22.9482 12.5 22.9482C18.0263 22.9482 22.5 18.4666 22.5 12.9482C22.5 7.4299 18.0263 2.94824 12.5 2.94824ZM16.0486 17.4937L17.7313 18.4746C17.1092 18.8334 16.3198 18.8573 15.6499 18.4746C14.7966 17.9801 14.4298 16.9674 14.7089 16.0583C14.669 15.9387 14.6052 15.827 14.5096 15.7313L12.7233 13.8733L12.4522 13.5862L12.1252 13.9132C12.4282 14.2162 12.4043 14.7266 12.0773 15.0535L8.29744 18.8334C7.97049 19.1604 7.45216 19.1843 7.14913 18.8813L6.42344 18.1556C6.12041 17.8526 6.14434 17.3422 6.47129 17.0152L10.2512 13.2353C10.5781 12.9084 11.0965 12.8844 11.3915 13.1875L11.7265 12.8526L11.0566 12.1508L10.1874 11.2497C10.0997 11.162 10.004 11.0902 9.89234 11.0503C9.36602 11.2098 8.76794 11.154 8.25757 10.8589C7.58771 10.4682 7.22089 9.77441 7.22089 9.0567L8.90351 10.0376C9.11882 10.1651 9.38995 10.0854 9.51754 9.87807L10.1156 8.84936C10.2432 8.63405 10.1635 8.36292 9.95614 8.2433L8.27352 7.26244C8.89553 6.90359 9.68501 6.87967 10.3549 7.27042C11.2081 7.76483 11.5829 8.77759 11.2959 9.68668C11.3357 9.80629 11.3995 9.91795 11.4952 10.0136L13.0104 11.5926L16.0407 8.56228L16.5351 7.33421L17.7631 6.83979L18.4968 7.56547L18.0024 8.79354L16.7743 9.28795L13.7281 12.3342L14.4298 13.0599L15.8094 14.4953C15.8971 14.583 15.9928 14.6468 16.1045 14.6947C16.6308 14.5352 17.2289 14.591 17.7392 14.886C18.4091 15.2768 18.7759 15.9706 18.7759 16.6883L17.0933 15.7074C16.878 15.5798 16.6068 15.6596 16.4872 15.8669L15.8891 16.8956C15.7616 17.095 15.8333 17.3741 16.0486 17.4937Z" fill="#DEE6F2"/>
    </svg>
    