<svg width="25" height="25" viewBox="0 0 25 25" fill="none" xmlns="http://www.w3.org/2000/svg">
    <circle cx="12.5" cy="12.9482" r="12" fill="#DEE6F2"/>
    <circle cx="12.5" cy="12.9482" r="9.8" fill="#005883" stroke="#DEE6F2" stroke-width="0.4"/>
    <path d="M12.5 2.94824C6.97368 2.94824 2.5 7.4299 2.5 12.9482C2.5 18.4666 6.98166 22.9482 12.5 22.9482C18.0263 22.9482 22.5 18.4666 22.5 12.9482C22.5 7.4299 18.0263 2.94824 12.5 2.94824ZM19.2145 19.0966H5.77752C5.23526 19.0966 4.80462 18.65 4.80462 18.0998V8.72975C4.80462 8.17951 5.24323 7.73293 5.77752 7.73293H7.92266V7.15876C7.92266 6.95939 8.13 6.7999 8.38518 6.7999C8.64036 6.7999 8.8477 6.95939 8.8477 7.15876V7.73293H10.6659V7.15876C10.6659 6.95939 10.8732 6.7999 11.1284 6.7999C11.3836 6.7999 11.5909 6.95939 11.5909 7.15876V7.73293H13.4091V7.15876C13.4091 6.95939 13.6165 6.7999 13.8716 6.7999C14.1268 6.7999 14.3341 6.95939 14.3341 7.15876V7.73293H16.1523V7.15876C16.1523 6.95939 16.3597 6.7999 16.6149 6.7999C16.87 6.7999 17.0774 6.95939 17.0774 7.15876V7.73293H19.2225C19.7568 7.73293 20.1954 8.17951 20.1954 8.72975V18.0998C20.1954 18.65 19.7568 19.0966 19.2145 19.0966Z" fill="#DEE6F2"/>
    <path d="M5.51465 18.1318H19.486V8.71387H5.51465V18.1318ZM17.5641 8.88932H19.1351V10.4603H17.5641V8.88932ZM17.5641 10.7554H19.1351V12.3263H17.5641V10.7554ZM17.5641 12.6294H19.1351V14.2004H17.5641V12.6294ZM17.5641 14.4954H19.1351V16.0664H17.5641V14.4954ZM15.6263 8.88932H17.1973V10.4603H15.6263V8.88932ZM15.6263 10.7554H17.1973V12.3263H15.6263V10.7554ZM15.6263 12.6294H17.1973V14.2004H15.6263V12.6294ZM15.6263 14.4954H17.1973V16.0664H15.6263V14.4954ZM13.6805 8.88932H15.2515V10.4603H13.6805V8.88932ZM13.6805 10.7554H15.2515V12.3263H13.6805V10.7554ZM13.6805 12.6294H15.2515V14.2004H13.6805V12.6294ZM13.6805 14.4954H15.2515V16.0664H13.6805V14.4954ZM11.7427 8.88932H13.3137V10.4603H11.7427V8.88932ZM11.7427 10.7554H13.3137V12.3263H11.7427V10.7554ZM11.7427 12.6294H13.3137V14.2004H11.7427V12.6294ZM11.7427 14.4954H13.3137V16.0664H11.7427V14.4954ZM9.80493 8.88932H11.3759V10.4603H9.80493V8.88932ZM9.80493 10.7554H11.3759V12.3263H9.80493V10.7554ZM9.80493 12.6294H11.3759V14.2004H9.80493V12.6294ZM9.80493 14.4954H11.3759V16.0664H9.80493V14.4954ZM9.80493 16.3615H11.3759V17.9324H9.80493V16.3615ZM7.85914 10.7554H9.43011V12.3263H7.85914V10.7554ZM7.85914 12.6294H9.43011V14.2004H7.85914V12.6294ZM7.85914 14.4954H9.43011V16.0664H7.85914V14.4954ZM7.85914 16.3615H9.43011V17.9324H7.85914V16.3615ZM5.92134 10.7554H7.49233V12.3263H5.92134V10.7554ZM5.92134 12.6294H7.49233V14.2004H5.92134V12.6294ZM5.92134 14.4954H7.49233V16.0664H5.92134V14.4954ZM5.92134 16.3615H7.49233V17.9324H5.92134V16.3615Z" fill="#DEE6F2"/>
    </svg>
    