<svg width="20" height="20" viewBox="0 0 20 20" fill="none" xmlns="http://www.w3.org/2000/svg">
<path d="M10 20C15.5263 20 20 15.5201 20 9.99602C20 4.4719 15.5183 0 10 0C4.47369 0 0 4.47987 0 9.99602C0 15.5281 4.47369 20 10 20ZM15.925 6.61618L11.3158 11.2555L9.96013 12.7222L6.5311 9.54962L7.88676 8.0829L9.84848 9.90036L14.5056 5.21323L15.925 6.61618ZM9.69697 4.37625C11.0686 4.37625 12.3285 4.87047 13.3094 5.69151L12.3365 6.67198C11.6108 6.09805 10.6938 5.74731 9.70494 5.74731C7.36044 5.74731 5.45455 7.65245 5.45455 9.99602C5.45455 12.3396 7.36044 14.2447 9.70494 14.2447C12.0494 14.2447 13.9553 12.3396 13.9553 9.99602C13.9553 9.78876 13.9314 9.58151 13.9075 9.38222L15.0478 8.23435C15.2313 8.79235 15.3349 9.38223 15.3349 9.99602C15.3349 13.1048 12.815 15.6158 9.71292 15.6158C6.61085 15.6158 4.09091 13.0969 4.09091 9.99602C4.07496 6.89518 6.59489 4.37625 9.69697 4.37625Z" fill="#434F63"/>
</svg>
